<svg width="121" height="140" viewBox="0 0 121 140" fill="none" xmlns="http://www.w3.org/2000/svg"><path opacity=".2" d="M76.205 40.332c0 8.532-10.47 13.962-25.208 13.962h-12.41v27.534h12.604c16.87 0 29.474 4.654 29.474 15.707 0 8.531-9.502 13.573-24.626 13.573-12.41 0-26.565-4.848-36.455-14.155L0 110.72C13.961 129.335 36.842 140 59.141 140c38.781 0 60.887-17.645 60.887-40.914 0-15.707-9.696-26.371-27.535-32.189 13.573-5.235 22.299-15.512 22.299-29.473C114.792 14.93 91.33 0 60.111 0 25.79 0 3.49 17.064 2.909 43.241h35.096c.388-8.92 8.92-13.961 20.36-13.961 11.247 0 17.84 4.654 17.84 11.052z" fill="#fff"/></svg>