<svg width="116" height="31" viewBox="0 0 116 31" fill="none" xmlns="http://www.w3.org/2000/svg"><g clip-path="url(#a)" fill="#436F7F"><path d="M91.999 0H85.62a.683.683 0 0 0-.481.197.67.67 0 0 0-.2.477v29.641a.694.694 0 0 0 .68.685H92c.18 0 .353-.071.48-.198a.671.671 0 0 0 .2-.476V.674a.671.671 0 0 0-.2-.477A.683.683 0 0 0 92 0zM1.18 0C.945 0 .714.07.519.199a1.182 1.182 0 0 0-.507 1.21c.046.23.16.44.326.605a1.194 1.194 0 0 0 1.298.256c.217-.09.403-.24.534-.435a1.172 1.172 0 0 0-.148-1.49A1.196 1.196 0 0 0 1.18 0zm0 8.596a1.2 1.2 0 0 0-.663.2 1.182 1.182 0 0 0-.504 1.213c.047.23.161.44.329.604a1.194 1.194 0 0 0 1.301.25 1.185 1.185 0 0 0 .727-1.098 1.16 1.16 0 0 0-.349-.83 1.18 1.18 0 0 0-.841-.34m0 2.866a1.2 1.2 0 0 0-.663.2 1.182 1.182 0 0 0-.504 1.214c.047.229.161.44.329.604a1.194 1.194 0 0 0 1.301.249 1.185 1.185 0 0 0 .727-1.098 1.16 1.16 0 0 0-.349-.83 1.18 1.18 0 0 0-.841-.339m2.934-8.596c-.236 0-.466.07-.662.199a1.182 1.182 0 0 0-.506 1.211c.046.229.16.44.326.604a1.194 1.194 0 0 0 1.297.256c.218-.09.404-.24.534-.435a1.172 1.172 0 0 0-.534-1.745 1.2 1.2 0 0 0-.455-.09m0 5.731c-.236 0-.466.07-.662.2a1.182 1.182 0 0 0-.505 1.213 1.194 1.194 0 0 0 1.63.853 1.172 1.172 0 0 0 .728-1.097 1.16 1.16 0 0 0-.35-.83 1.18 1.18 0 0 0-.841-.34zm0 5.73c-.236 0-.466.07-.662.2a1.182 1.182 0 0 0-.505 1.214 1.194 1.194 0 0 0 1.63.853 1.185 1.185 0 0 0 .728-1.097 1.16 1.16 0 0 0-.35-.831 1.18 1.18 0 0 0-.841-.339zm0 5.731c-.236 0-.466.07-.662.2a1.182 1.182 0 0 0-.505 1.213 1.194 1.194 0 0 0 1.63.853 1.172 1.172 0 0 0 .728-1.097 1.16 1.16 0 0 0-.35-.83 1.182 1.182 0 0 0-.841-.34zm0 2.865c-.236 0-.466.07-.662.2a1.182 1.182 0 0 0-.505 1.214 1.194 1.194 0 0 0 1.63.853 1.185 1.185 0 0 0 .728-1.098 1.16 1.16 0 0 0-.35-.83 1.18 1.18 0 0 0-.841-.34zm0 5.718c-.236 0-.466.07-.662.2a1.183 1.183 0 0 0-.506 1.21c.046.23.16.44.326.605a1.194 1.194 0 0 0 1.297.255 1.172 1.172 0 0 0 0-2.18 1.2 1.2 0 0 0-.455-.09zM6.962 0c-.235 0-.465.07-.66.199a1.182 1.182 0 0 0-.507 1.21c.046.23.16.44.326.605a1.194 1.194 0 0 0 1.297.256c.218-.09.404-.24.534-.435a1.172 1.172 0 0 0-.148-1.49A1.196 1.196 0 0 0 6.962 0zm0 5.73c-.235 0-.465.07-.66.2a1.182 1.182 0 0 0-.507 1.21c.046.23.16.44.326.604A1.194 1.194 0 0 0 7.418 8a1.172 1.172 0 0 0 .386-1.924 1.196 1.196 0 0 0-.842-.346m0 2.866a1.2 1.2 0 0 0-.662.2 1.182 1.182 0 0 0-.504 1.213c.046.23.16.44.328.604a1.194 1.194 0 0 0 1.301.25 1.18 1.18 0 0 0 .728-1.098 1.16 1.16 0 0 0-.35-.83 1.18 1.18 0 0 0-.84-.34zm0 2.865a1.2 1.2 0 0 0-.662.2 1.182 1.182 0 0 0-.504 1.214c.046.229.16.44.328.604a1.194 1.194 0 0 0 1.301.249 1.18 1.18 0 0 0 .728-1.098 1.16 1.16 0 0 0-.35-.83 1.18 1.18 0 0 0-.84-.339m-.001 2.865a1.2 1.2 0 0 0-.662.2 1.182 1.182 0 0 0-.504 1.214c.046.23.16.44.328.604a1.194 1.194 0 0 0 1.301.249 1.18 1.18 0 0 0 .728-1.097 1.16 1.16 0 0 0-.35-.831 1.18 1.18 0 0 0-.84-.339m-.001 2.866a1.182 1.182 0 0 0-1.167 1.414 1.195 1.195 0 0 0 2.162.414c.13-.196.198-.425.196-.66a1.16 1.16 0 0 0-.35-.83 1.18 1.18 0 0 0-.84-.338m-.001 8.595c-.235 0-.466.07-.662.2s-.349.315-.438.53a1.17 1.17 0 0 0 .262 1.288 1.194 1.194 0 0 0 2.029-.849 1.16 1.16 0 0 0-.35-.83 1.18 1.18 0 0 0-.84-.339M9.854 2.865c-.236 0-.466.07-.662.199a1.182 1.182 0 0 0-.506 1.211c.046.229.16.44.326.604a1.194 1.194 0 0 0 1.297.256c.218-.09.404-.24.535-.435a1.172 1.172 0 0 0-.148-1.49 1.196 1.196 0 0 0-.842-.345m0 2.865c-.236 0-.466.07-.662.2a1.182 1.182 0 0 0-.506 1.21c.046.23.16.44.326.604A1.194 1.194 0 0 0 10.309 8a1.172 1.172 0 0 0 .386-1.924 1.196 1.196 0 0 0-.841-.346m0 2.866a1.2 1.2 0 0 0-.663.2 1.182 1.182 0 0 0-.504 1.213c.047.23.161.44.329.604a1.194 1.194 0 0 0 1.3.25c.218-.091.403-.244.533-.44.13-.195.197-.424.195-.658a1.16 1.16 0 0 0-.349-.83 1.18 1.18 0 0 0-.841-.34zm0 8.596a1.182 1.182 0 0 0-1.167 1.414c.047.228.161.439.329.603a1.195 1.195 0 0 0 1.833-.19c.13-.195.197-.424.195-.658a1.16 1.16 0 0 0-.349-.83 1.18 1.18 0 0 0-.841-.34m0 11.449c-.236 0-.466.07-.662.2a1.182 1.182 0 0 0-.506 1.21c.046.23.16.44.326.605a1.194 1.194 0 0 0 1.297.255 1.172 1.172 0 0 0 .386-1.924 1.196 1.196 0 0 0-.841-.345zM12.745 0a1.198 1.198 0 0 0-1.1.728 1.17 1.17 0 0 0 .258 1.286 1.194 1.194 0 0 0 1.297.256c.218-.09.404-.24.535-.435a1.172 1.172 0 0 0-.148-1.49A1.196 1.196 0 0 0 12.745 0zm0 2.865a1.198 1.198 0 0 0-1.1.728 1.17 1.17 0 0 0 .258 1.286 1.194 1.194 0 0 0 1.297.256c.218-.09.404-.24.535-.435a1.172 1.172 0 0 0-.148-1.49 1.196 1.196 0 0 0-.842-.345m0 5.731c-.236 0-.467.07-.663.2s-.348.314-.438.53a1.17 1.17 0 0 0 .263 1.287 1.194 1.194 0 0 0 1.3.25c.218-.092.403-.244.533-.44a1.172 1.172 0 0 0-.157-1.485 1.196 1.196 0 0 0-.838-.342zm0 2.864a1.198 1.198 0 0 0-1.101.732 1.17 1.17 0 0 0 .263 1.287 1.194 1.194 0 0 0 1.3.249c.218-.091.403-.244.533-.44a1.172 1.172 0 0 0-.157-1.485 1.196 1.196 0 0 0-.838-.342zm0 5.731a1.198 1.198 0 0 0-1.101.731 1.17 1.17 0 0 0 .263 1.287 1.194 1.194 0 0 0 1.3.25 1.172 1.172 0 0 0 .375-1.925 1.197 1.197 0 0 0-.837-.343zm0 5.731a1.198 1.198 0 0 0-1.101.73 1.17 1.17 0 0 0 .263 1.288 1.194 1.194 0 0 0 1.3.248 1.172 1.172 0 0 0 .375-1.925 1.196 1.196 0 0 0-.837-.341zm0 2.865a1.198 1.198 0 0 0-1.101.73 1.17 1.17 0 0 0 .263 1.288 1.194 1.194 0 0 0 1.3.249 1.172 1.172 0 0 0 .375-1.925 1.196 1.196 0 0 0-.837-.342zM15.636 0a1.198 1.198 0 0 0-1.1.728 1.17 1.17 0 0 0 .258 1.286 1.194 1.194 0 0 0 1.298.256c.217-.09.403-.24.534-.435.131-.194.2-.422.2-.655a1.16 1.16 0 0 0-.345-.838A1.181 1.181 0 0 0 15.636 0m0 5.73a1.198 1.198 0 0 0-1.1.729 1.17 1.17 0 0 0 .258 1.285A1.194 1.194 0 0 0 16.093 8a1.172 1.172 0 0 0 .735-1.09 1.16 1.16 0 0 0-.346-.837 1.181 1.181 0 0 0-.845-.342m-.001 5.73a1.198 1.198 0 0 0-1.1.73 1.17 1.17 0 0 0 .262 1.288 1.193 1.193 0 0 0 1.301.249 1.18 1.18 0 0 0 .728-1.098 1.162 1.162 0 0 0-.35-.83 1.18 1.18 0 0 0-.84-.339zm0 2.865a1.198 1.198 0 0 0-1.1.731 1.17 1.17 0 0 0 .262 1.287 1.193 1.193 0 0 0 1.301.249 1.18 1.18 0 0 0 .728-1.097 1.16 1.16 0 0 0-.35-.831 1.18 1.18 0 0 0-.84-.339zm0 2.866a1.198 1.198 0 0 0-1.1.73 1.17 1.17 0 0 0 .262 1.287 1.195 1.195 0 0 0 1.833-.19c.13-.195.198-.424.196-.658a1.162 1.162 0 0 0-.35-.83 1.18 1.18 0 0 0-.84-.34m-.001 2.866a1.198 1.198 0 0 0-1.1.73 1.17 1.17 0 0 0 .262 1.287 1.193 1.193 0 0 0 1.301.25 1.186 1.186 0 0 0 .728-1.098 1.162 1.162 0 0 0-.35-.83 1.182 1.182 0 0 0-.84-.34zm0 5.73a1.198 1.198 0 0 0-1.1.73 1.17 1.17 0 0 0 .262 1.288 1.194 1.194 0 0 0 2.029-.849 1.162 1.162 0 0 0-.35-.83 1.18 1.18 0 0 0-.84-.339zm0 2.855a1.197 1.197 0 0 0-.653.222 1.17 1.17 0 0 0-.114 1.82 1.194 1.194 0 0 0 1.305.21 1.186 1.186 0 0 0 .695-1.115 1.17 1.17 0 0 0-.349-.834 1.196 1.196 0 0 0-.841-.345M18.527 0a1.198 1.198 0 0 0-1.107.721 1.17 1.17 0 0 0 .251 1.29 1.194 1.194 0 0 0 1.299.26c.218-.09.405-.24.536-.435A1.172 1.172 0 0 0 19.363.35a1.196 1.196 0 0 0-.836-.35m0 2.865a1.198 1.198 0 0 0-1.107.721 1.17 1.17 0 0 0 .251 1.29 1.194 1.194 0 0 0 1.299.26 1.172 1.172 0 0 0 .393-1.921 1.196 1.196 0 0 0-.835-.35zm0 5.731a1.199 1.199 0 0 0-.665.194 1.182 1.182 0 0 0-.513 1.213c.045.23.159.441.326.607a1.193 1.193 0 0 0 1.302.253 1.172 1.172 0 0 0 .381-1.922 1.196 1.196 0 0 0-.83-.345m-.001 5.73a1.198 1.198 0 0 0-1.108.724 1.17 1.17 0 0 0 .256 1.29 1.193 1.193 0 0 0 1.302.254c.218-.09.404-.244.534-.44a1.172 1.172 0 0 0-.152-1.482 1.196 1.196 0 0 0-.832-.346m0 5.731a1.199 1.199 0 0 0-.665.194 1.182 1.182 0 0 0-.513 1.213c.045.23.159.441.326.607a1.194 1.194 0 0 0 1.302.253 1.172 1.172 0 0 0 .381-1.922 1.195 1.195 0 0 0-.83-.345m-.001 2.865a1.198 1.198 0 0 0-1.108.723 1.17 1.17 0 0 0 .256 1.29 1.193 1.193 0 0 0 1.302.255 1.19 1.19 0 0 0 .534-.44 1.172 1.172 0 0 0-.152-1.483 1.196 1.196 0 0 0-.832-.345m0 2.865a1.199 1.199 0 0 0-.665.195 1.182 1.182 0 0 0-.513 1.213c.045.23.159.44.326.606a1.194 1.194 0 0 0 1.302.254c.218-.09.404-.244.534-.44a1.172 1.172 0 0 0-.152-1.482 1.195 1.195 0 0 0-.832-.346m0 2.853c-.315 0-.618.125-.841.346a1.174 1.174 0 0 0 0 1.669 1.196 1.196 0 0 0 1.683 0 1.174 1.174 0 0 0 0-1.669 1.196 1.196 0 0 0-.842-.345zM21.418 0a1.199 1.199 0 0 0-.664.194 1.182 1.182 0 0 0-.515 1.21c.045.229.157.44.323.606a1.194 1.194 0 0 0 1.299.26 1.172 1.172 0 0 0 .392-1.92 1.196 1.196 0 0 0-.835-.35m.001 14.326a1.198 1.198 0 0 0-1.109.724 1.17 1.17 0 0 0 .257 1.29 1.193 1.193 0 0 0 1.302.254c.218-.09.404-.244.534-.44a1.172 1.172 0 0 0-.153-1.482 1.196 1.196 0 0 0-.831-.346m0 2.866a1.198 1.198 0 0 0-.666.194 1.17 1.17 0 0 0-.187 1.82 1.194 1.194 0 0 0 1.303.253 1.173 1.173 0 0 0 .381-1.922 1.196 1.196 0 0 0-.831-.345zm0 2.865a1.198 1.198 0 0 0-.666.194 1.17 1.17 0 0 0-.187 1.82 1.194 1.194 0 0 0 1.303.253 1.172 1.172 0 0 0 .381-1.922 1.196 1.196 0 0 0-.831-.345zm0 2.865a1.198 1.198 0 0 0-1.109.723 1.17 1.17 0 0 0 .257 1.29 1.193 1.193 0 0 0 1.302.255 1.19 1.19 0 0 0 .534-.44 1.172 1.172 0 0 0-.153-1.483 1.196 1.196 0 0 0-.831-.345zm0 2.865a1.198 1.198 0 0 0-.666.195 1.17 1.17 0 0 0-.187 1.82 1.194 1.194 0 0 0 1.303.253c.218-.09.404-.244.534-.44a1.173 1.173 0 0 0-.153-1.482 1.196 1.196 0 0 0-.831-.346zm0 2.853c-.316 0-.619.125-.842.346a1.174 1.174 0 0 0 0 1.669 1.196 1.196 0 0 0 1.684 0 1.175 1.175 0 0 0 0-1.669 1.196 1.196 0 0 0-.842-.345zM24.31 5.73a1.199 1.199 0 0 0-.664.194 1.182 1.182 0 0 0-.515 1.21c.044.23.157.44.323.607a1.194 1.194 0 0 0 1.299.26c.218-.089.404-.24.535-.434a1.172 1.172 0 0 0-.143-1.487 1.196 1.196 0 0 0-.835-.35m0 2.866a1.198 1.198 0 0 0-1.108.723 1.17 1.17 0 0 0 .256 1.29 1.193 1.193 0 0 0 1.302.254 1.172 1.172 0 0 0 .381-1.922 1.196 1.196 0 0 0-.831-.345m0 2.865a1.198 1.198 0 0 0-.665.194 1.17 1.17 0 0 0-.187 1.82 1.194 1.194 0 0 0 1.302.254 1.19 1.19 0 0 0 .534-.44 1.172 1.172 0 0 0-.153-1.482 1.196 1.196 0 0 0-.831-.346zm0 2.865a1.198 1.198 0 0 0-1.108.724 1.17 1.17 0 0 0 .256 1.29 1.193 1.193 0 0 0 1.302.254c.218-.09.404-.244.534-.44a1.172 1.172 0 0 0-.153-1.482 1.196 1.196 0 0 0-.831-.346zm0 2.866a1.198 1.198 0 0 0-.665.194 1.17 1.17 0 0 0-.187 1.82 1.194 1.194 0 0 0 1.302.253 1.172 1.172 0 0 0 .381-1.922 1.196 1.196 0 0 0-.831-.345zm0 2.865a1.198 1.198 0 0 0-.665.194 1.17 1.17 0 0 0-.187 1.82 1.194 1.194 0 0 0 1.302.253 1.172 1.172 0 0 0 .381-1.922 1.196 1.196 0 0 0-.831-.345zm0 2.865a1.198 1.198 0 0 0-1.108.723 1.17 1.17 0 0 0 .256 1.29 1.193 1.193 0 0 0 1.302.255 1.19 1.19 0 0 0 .534-.44 1.172 1.172 0 0 0-.153-1.483 1.196 1.196 0 0 0-.831-.345zm0 2.865a1.198 1.198 0 0 0-.665.195 1.17 1.17 0 0 0-.187 1.82 1.194 1.194 0 0 0 1.302.253c.218-.09.404-.244.534-.44a1.172 1.172 0 0 0-.153-1.482 1.196 1.196 0 0 0-.831-.346m0 2.853a1.199 1.199 0 0 0-.664.194 1.183 1.183 0 0 0-.515 1.21c.044.23.157.44.323.607a1.194 1.194 0 0 0 1.299.26c.218-.089.404-.24.535-.434a1.172 1.172 0 0 0-.143-1.487 1.196 1.196 0 0 0-.835-.35M27.201 0a1.199 1.199 0 0 0-.664.194 1.17 1.17 0 0 0-.192 1.816 1.193 1.193 0 0 0 1.299.26 1.173 1.173 0 0 0 .393-1.92A1.196 1.196 0 0 0 27.2 0m.001 2.865a1.198 1.198 0 0 0-1.107.721 1.17 1.17 0 0 0 .251 1.29 1.193 1.193 0 0 0 1.299.26 1.173 1.173 0 0 0 .393-1.921 1.196 1.196 0 0 0-.836-.35zm0 2.865a1.199 1.199 0 0 0-.664.194 1.17 1.17 0 0 0-.192 1.816 1.193 1.193 0 0 0 1.299.261 1.173 1.173 0 0 0 .393-1.921 1.196 1.196 0 0 0-.836-.35zm0 2.866a1.198 1.198 0 0 0-1.108.723 1.17 1.17 0 0 0 .256 1.29 1.194 1.194 0 0 0 1.302.254 1.172 1.172 0 0 0 .381-1.922 1.196 1.196 0 0 0-.83-.345zm0 2.865a1.198 1.198 0 0 0-1.108.723 1.17 1.17 0 0 0 .256 1.29 1.195 1.195 0 0 0 1.836-.184 1.172 1.172 0 0 0-.152-1.483 1.196 1.196 0 0 0-.832-.346m0 2.865a1.197 1.197 0 0 0-1.108.724 1.17 1.17 0 0 0 .256 1.29 1.194 1.194 0 0 0 1.302.254c.218-.09.404-.244.534-.44a1.172 1.172 0 0 0-.152-1.482 1.196 1.196 0 0 0-.832-.346zm0 2.866a1.198 1.198 0 0 0-1.108.723 1.17 1.17 0 0 0 .256 1.29 1.195 1.195 0 0 0 1.836-.185 1.172 1.172 0 0 0-.152-1.483 1.196 1.196 0 0 0-.832-.345zm0 2.865a1.198 1.198 0 0 0-1.108.723 1.17 1.17 0 0 0 .256 1.29 1.195 1.195 0 0 0 1.836-.185 1.172 1.172 0 0 0-.152-1.483 1.196 1.196 0 0 0-.832-.345zm0 2.865a1.197 1.197 0 0 0-1.108.723 1.17 1.17 0 0 0 .256 1.29 1.194 1.194 0 0 0 1.302.255 1.19 1.19 0 0 0 .534-.44 1.172 1.172 0 0 0-.152-1.483 1.196 1.196 0 0 0-.832-.345zM30.092 0a1.198 1.198 0 0 0-1.107.721 1.17 1.17 0 0 0 .251 1.29 1.194 1.194 0 0 0 1.299.26c.218-.09.404-.24.536-.435A1.172 1.172 0 0 0 30.927.35a1.196 1.196 0 0 0-.835-.35m0 2.865a1.198 1.198 0 0 0-1.107.721 1.17 1.17 0 0 0 .251 1.29 1.194 1.194 0 0 0 1.299.26 1.172 1.172 0 0 0 .392-1.921 1.196 1.196 0 0 0-.835-.35zm0 2.865a1.198 1.198 0 0 0-1.107.721 1.17 1.17 0 0 0 .251 1.29 1.194 1.194 0 0 0 1.299.26 1.172 1.172 0 0 0 .392-1.921 1.196 1.196 0 0 0-.835-.35zm0 2.866a1.198 1.198 0 0 0-.665.194 1.182 1.182 0 0 0-.514 1.213 1.193 1.193 0 0 0 1.629.86 1.172 1.172 0 0 0 .381-1.922 1.196 1.196 0 0 0-.83-.345zm0 2.865a1.198 1.198 0 0 0-.665.194 1.182 1.182 0 0 0-.514 1.213 1.194 1.194 0 0 0 1.629.86 1.172 1.172 0 0 0 .381-1.922 1.195 1.195 0 0 0-.83-.345m-.001 8.596a1.198 1.198 0 0 0-.665.194 1.182 1.182 0 0 0-.514 1.213 1.194 1.194 0 0 0 1.629.86 1.172 1.172 0 0 0 .381-1.922 1.195 1.195 0 0 0-.83-.345zm0 2.865a1.198 1.198 0 0 0-1.108.723 1.17 1.17 0 0 0 .256 1.29 1.193 1.193 0 0 0 1.302.255 1.19 1.19 0 0 0 .534-.44 1.172 1.172 0 0 0-.153-1.483 1.196 1.196 0 0 0-.83-.345zm2.892-2.865a1.199 1.199 0 0 0-.666.194 1.182 1.182 0 0 0-.513 1.213c.046.23.16.441.326.607a1.194 1.194 0 0 0 1.303.253 1.172 1.172 0 0 0 .381-1.922 1.195 1.195 0 0 0-.831-.345zm0 2.865a1.198 1.198 0 0 0-1.109.723 1.17 1.17 0 0 0 .256 1.29 1.193 1.193 0 0 0 1.303.255 1.19 1.19 0 0 0 .534-.44 1.172 1.172 0 0 0-.153-1.483 1.196 1.196 0 0 0-.831-.345zm2.891-2.865a1.198 1.198 0 0 0-.666.194 1.17 1.17 0 0 0-.187 1.82 1.194 1.194 0 0 0 1.303.253c.217-.09.403-.243.533-.439a1.171 1.171 0 0 0-.152-1.483 1.196 1.196 0 0 0-.831-.345zm0 2.865a1.2 1.2 0 0 0-.663.2 1.182 1.182 0 0 0-.504 1.214c.047.229.162.439.329.604a1.194 1.194 0 0 0 1.301.248 1.172 1.172 0 0 0 .375-1.925 1.196 1.196 0 0 0-.838-.341zm2.891 0a1.198 1.198 0 0 0-1.108.723 1.17 1.17 0 0 0 .256 1.29 1.194 1.194 0 0 0 1.302.255 1.19 1.19 0 0 0 .534-.44 1.172 1.172 0 0 0-.153-1.483 1.196 1.196 0 0 0-.831-.345z"/><path d="M38.947 1.338a2.358 2.358 0 0 0-.952-1.003A2.388 2.388 0 0 0 36.64.032h-3.657c-.315 0-.618.124-.841.346a1.174 1.174 0 0 0-.35.834v.253c.06.26.206.494.417.66a1.197 1.197 0 0 0 1.483-.002c.21-.166.358-.398.418-.658v.252a1.184 1.184 0 0 1-.744 1.054 1.94 1.94 0 0 1-.436.084 1.228 1.228 0 0 0-.833.354c-.221.22-.35.515-.357.826v.253c.058.26.205.494.416.66a1.197 1.197 0 0 0 1.483-.002c.21-.166.358-.398.418-.658v.252c-.01.228-.084.449-.216.635a1.2 1.2 0 0 1-.528.419 1.64 1.64 0 0 1-.436.084 1.217 1.217 0 0 0-.836.352c-.222.22-.349.517-.354.828a1.161 1.161 0 0 0 .633 1.032 1.189 1.189 0 0 0 1.216-.074l.128.064c.457 1.116 4.347 10.533 4.921 11.881 0 .127 0 .18-.096.211-.29.044-.557.19-.752.409-.194.22-.304.5-.31.792a1.17 1.17 0 0 0 .378.926 1.192 1.192 0 0 0 .96.306c.245 0 .484-.078.681-.221.106-.063.191 0 .234 0l3.061 7.373c.117.405.364.76.704 1.01.34.252.754.385 1.178.38h5.995a.664.664 0 0 0 .615-.285.649.649 0 0 0 .033-.673L38.946 1.34zm76.83 28.357c-.553-.622-12.564-14.916-12.564-14.916S113.768 2.381 114.331 1.77a1.83 1.83 0 0 0 .649-1.137c0-.453-.34-.632-.787-.632h-5.91a2.057 2.057 0 0 0-1.871.81c-.637.707-12.256 14.505-12.256 14.505s11.502 13.83 12.267 14.747c.217.354.534.637.912.813a2.14 2.14 0 0 0 1.214.177h6.707a.725.725 0 0 0 .734-.674.883.883 0 0 0-.213-.684zM79.583 25.07H64.596V.674a.682.682 0 0 0-.207-.477.694.694 0 0 0-.484-.197H55.4a.683.683 0 0 0-.481.197.671.671 0 0 0-.2.477v3.992a.694.694 0 0 0 .68.685h1.447v24.964a.691.691 0 0 0 .68.685h22.056c.18 0 .354-.071.481-.198a.671.671 0 0 0 .2-.476v-4.582a.671.671 0 0 0-.2-.477.684.684 0 0 0-.48-.197z"/></g><defs><clipPath id="a"><path fill="#fff" d="M0 0h116v31H0z"/></clipPath></defs></svg>